<svg xmlns="http://www.w3.org/2000/svg" viewBox="0 0 120 120" fill="none">
  <defs>
    <linearGradient id="g1" x1=".5" y1="0" x2=".5" y2="1">
      <stop offset="0%" stop-color="#86EFAC" stop-opacity="0.55"/>
      <stop offset="100%" stop-color="#86EFAC" stop-opacity="0"/>
    </linearGradient>
    <linearGradient id="g2" x1=".5" y1="0" x2=".5" y2="1">
      <stop offset="0%" stop-color="#16A34A" stop-opacity="0.4"/>
      <stop offset="100%" stop-color="#16A34A" stop-opacity="0"/>
    </linearGradient>
    <linearGradient id="g3" x1=".5" y1="0" x2=".5" y2="1">
      <stop offset="0%" stop-color="#DC2626" stop-opacity="0.28"/>
      <stop offset="100%" stop-color="#DC2626" stop-opacity="0"/>
    </linearGradient>
    <clipPath id="cp"><rect x="0" y="0" width="120" height="120"/></clipPath>
  </defs>
  <g clip-path="url(#cp)">
    <g>
      <animateTransform attributeName="transform" type="translate" from="0 0" to="-120 0" dur="7s" repeatCount="indefinite"/>
      <path d="M0.0,40.0 L1.2,40.9 L2.4,41.8 L3.6,42.6 L4.8,43.5 L6.0,44.3 L7.2,45.2 L8.4,46.0 L9.6,46.7 L10.8,47.5 L12.0,48.2 L13.2,48.9 L14.4,49.6 L15.6,50.2 L16.8,50.8 L18.0,51.3 L19.2,51.8 L20.4,52.3 L21.6,52.7 L22.8,53.0 L24.0,53.3 L25.2,53.6 L26.4,53.8 L27.6,53.9 L28.8,54.0 L30.0,54.0 L31.2,54.0 L32.4,53.9 L33.6,53.8 L34.8,53.6 L36.0,53.3 L37.2,53.0 L38.4,52.7 L39.6,52.3 L40.8,51.8 L42.0,51.3 L43.2,50.8 L44.4,50.2 L45.6,49.6 L46.8,48.9 L48.0,48.2 L49.2,47.5 L50.4,46.7 L51.6,46.0 L52.8,45.2 L54.0,44.3 L55.2,43.5 L56.4,42.6 L57.6,41.8 L58.8,40.9 L60.0,40.0 L61.2,39.1 L62.4,38.2 L63.6,37.4 L64.8,36.5 L66.0,35.7 L67.2,34.8 L68.4,34.0 L69.6,33.3 L70.8,32.5 L72.0,31.8 L73.2,31.1 L74.4,30.4 L75.6,29.8 L76.8,29.2 L78.0,28.7 L79.2,28.2 L80.4,27.7 L81.6,27.3 L82.8,27.0 L84.0,26.7 L85.2,26.4 L86.4,26.2 L87.6,26.1 L88.8,26.0 L90.0,26.0 L91.2,26.0 L92.4,26.1 L93.6,26.2 L94.8,26.4 L96.0,26.7 L97.2,27.0 L98.4,27.3 L99.6,27.7 L100.8,28.2 L102.0,28.7 L103.2,29.2 L104.4,29.8 L105.6,30.4 L106.8,31.1 L108.0,31.8 L109.2,32.5 L110.4,33.3 L111.6,34.0 L112.8,34.8 L114.0,35.7 L115.2,36.5 L116.4,37.4 L117.6,38.2 L118.8,39.1 L120.0,40.0 L121.2,40.9 L122.4,41.8 L123.6,42.6 L124.8,43.5 L126.0,44.3 L127.2,45.2 L128.4,46.0 L129.6,46.7 L130.8,47.5 L132.0,48.2 L133.2,48.9 L134.4,49.6 L135.6,50.2 L136.8,50.8 L138.0,51.3 L139.2,51.8 L140.4,52.3 L141.6,52.7 L142.8,53.0 L144.0,53.3 L145.2,53.6 L146.4,53.8 L147.6,53.9 L148.8,54.0 L150.0,54.0 L151.2,54.0 L152.4,53.9 L153.6,53.8 L154.8,53.6 L156.0,53.3 L157.2,53.0 L158.4,52.7 L159.6,52.3 L160.8,51.8 L162.0,51.3 L163.2,50.8 L164.4,50.2 L165.6,49.6 L166.8,48.9 L168.0,48.2 L169.2,47.5 L170.4,46.7 L171.6,46.0 L172.8,45.2 L174.0,44.3 L175.2,43.5 L176.4,42.6 L177.6,41.8 L178.8,40.9 L180.0,40.0 L181.2,39.1 L182.4,38.2 L183.6,37.4 L184.8,36.5 L186.0,35.7 L187.2,34.8 L188.4,34.0 L189.6,33.3 L190.8,32.5 L192.0,31.8 L193.2,31.1 L194.4,30.4 L195.6,29.8 L196.8,29.2 L198.0,28.7 L199.2,28.2 L200.4,27.7 L201.6,27.3 L202.8,27.0 L204.0,26.7 L205.2,26.4 L206.4,26.2 L207.6,26.1 L208.8,26.0 L210.0,26.0 L211.2,26.0 L212.4,26.1 L213.6,26.2 L214.8,26.4 L216.0,26.7 L217.2,27.0 L218.4,27.3 L219.6,27.7 L220.8,28.2 L222.0,28.7 L223.2,29.2 L224.4,29.8 L225.6,30.4 L226.8,31.1 L228.0,31.8 L229.2,32.5 L230.4,33.3 L231.6,34.0 L232.8,34.8 L234.0,35.7 L235.2,36.5 L236.4,37.4 L237.6,38.2 L238.8,39.1 L240.0,40.0 L241.2,40.9 L242.4,41.8 L243.6,42.6 L244.8,43.5 L246.0,44.3 L247.2,45.2 L248.4,46.0 L249.6,46.7 L250.8,47.5 L252.0,48.2 L253.2,48.9 L254.4,49.6 L255.6,50.2 L256.8,50.8 L258.0,51.3 L259.2,51.8 L260.4,52.3 L261.6,52.7 L262.8,53.0 L264.0,53.3 L265.2,53.6 L266.4,53.8 L267.6,53.9 L268.8,54.0 L270.0,54.0 L271.2,54.0 L272.4,53.9 L273.6,53.8 L274.8,53.6 L276.0,53.3 L277.2,53.0 L278.4,52.7 L279.6,52.3 L280.8,51.8 L282.0,51.3 L283.2,50.8 L284.4,50.2 L285.6,49.6 L286.8,48.9 L288.0,48.2 L289.2,47.5 L290.4,46.7 L291.6,46.0 L292.8,45.2 L294.0,44.3 L295.2,43.5 L296.4,42.6 L297.6,41.8 L298.8,40.9 L300.0,40.0 L301.2,39.1 L302.4,38.2 L303.6,37.4 L304.8,36.5 L306.0,35.7 L307.2,34.8 L308.4,34.0 L309.6,33.3 L310.8,32.5 L312.0,31.8 L313.2,31.1 L314.4,30.4 L315.6,29.8 L316.8,29.2 L318.0,28.7 L319.2,28.2 L320.4,27.7 L321.6,27.3 L322.8,27.0 L324.0,26.7 L325.2,26.4 L326.4,26.2 L327.6,26.1 L328.8,26.0 L330.0,26.0 L331.2,26.0 L332.4,26.1 L333.6,26.2 L334.8,26.4 L336.0,26.7 L337.2,27.0 L338.4,27.3 L339.6,27.7 L340.8,28.2 L342.0,28.7 L343.2,29.2 L344.4,29.8 L345.6,30.4 L346.8,31.1 L348.0,31.8 L349.2,32.5 L350.4,33.3 L351.6,34.0 L352.8,34.8 L354.0,35.7 L355.2,36.5 L356.4,37.4 L357.6,38.2 L358.8,39.1 L360.0,40.0 L360,130 L0,130Z" fill="url(#g3)"/>
      <path d="M0.0,40.0 L1.2,40.9 L2.4,41.8 L3.6,42.6 L4.8,43.5 L6.0,44.3 L7.2,45.2 L8.4,46.0 L9.6,46.7 L10.8,47.5 L12.0,48.2 L13.2,48.9 L14.4,49.6 L15.6,50.2 L16.8,50.8 L18.0,51.3 L19.2,51.8 L20.4,52.3 L21.6,52.7 L22.8,53.0 L24.0,53.3 L25.2,53.6 L26.4,53.8 L27.6,53.9 L28.8,54.0 L30.0,54.0 L31.2,54.0 L32.4,53.9 L33.6,53.8 L34.8,53.6 L36.0,53.3 L37.2,53.0 L38.4,52.7 L39.6,52.3 L40.8,51.8 L42.0,51.3 L43.2,50.8 L44.4,50.2 L45.6,49.6 L46.8,48.9 L48.0,48.2 L49.2,47.5 L50.4,46.7 L51.6,46.0 L52.8,45.2 L54.0,44.3 L55.2,43.5 L56.4,42.6 L57.6,41.8 L58.8,40.9 L60.0,40.0 L61.2,39.1 L62.4,38.2 L63.6,37.4 L64.8,36.5 L66.0,35.7 L67.2,34.8 L68.4,34.0 L69.6,33.3 L70.8,32.5 L72.0,31.8 L73.2,31.1 L74.4,30.4 L75.6,29.8 L76.8,29.2 L78.0,28.7 L79.2,28.2 L80.4,27.7 L81.6,27.3 L82.8,27.0 L84.0,26.7 L85.2,26.4 L86.4,26.2 L87.6,26.1 L88.8,26.0 L90.0,26.0 L91.2,26.0 L92.4,26.1 L93.6,26.2 L94.8,26.4 L96.0,26.7 L97.2,27.0 L98.4,27.3 L99.6,27.7 L100.8,28.2 L102.0,28.7 L103.2,29.2 L104.4,29.8 L105.6,30.4 L106.8,31.1 L108.0,31.8 L109.2,32.5 L110.4,33.3 L111.6,34.0 L112.8,34.8 L114.0,35.7 L115.2,36.5 L116.4,37.4 L117.6,38.2 L118.8,39.1 L120.0,40.0 L121.2,40.9 L122.4,41.8 L123.6,42.6 L124.8,43.5 L126.0,44.3 L127.2,45.2 L128.4,46.0 L129.6,46.7 L130.8,47.5 L132.0,48.2 L133.2,48.9 L134.4,49.6 L135.6,50.2 L136.8,50.8 L138.0,51.3 L139.2,51.8 L140.4,52.3 L141.6,52.7 L142.8,53.0 L144.0,53.3 L145.2,53.6 L146.4,53.8 L147.6,53.9 L148.8,54.0 L150.0,54.0 L151.2,54.0 L152.4,53.9 L153.6,53.8 L154.8,53.6 L156.0,53.3 L157.2,53.0 L158.4,52.7 L159.6,52.3 L160.8,51.8 L162.0,51.3 L163.2,50.8 L164.4,50.2 L165.6,49.6 L166.8,48.9 L168.0,48.2 L169.2,47.5 L170.4,46.7 L171.6,46.0 L172.8,45.2 L174.0,44.3 L175.2,43.5 L176.4,42.6 L177.6,41.8 L178.8,40.9 L180.0,40.0 L181.2,39.1 L182.4,38.2 L183.6,37.4 L184.8,36.5 L186.0,35.7 L187.2,34.8 L188.4,34.0 L189.6,33.3 L190.8,32.5 L192.0,31.8 L193.2,31.1 L194.4,30.4 L195.6,29.8 L196.8,29.2 L198.0,28.7 L199.2,28.2 L200.4,27.7 L201.6,27.3 L202.8,27.0 L204.0,26.7 L205.2,26.4 L206.4,26.2 L207.6,26.1 L208.8,26.0 L210.0,26.0 L211.2,26.0 L212.4,26.1 L213.6,26.2 L214.8,26.4 L216.0,26.7 L217.2,27.0 L218.4,27.3 L219.6,27.7 L220.8,28.2 L222.0,28.7 L223.2,29.2 L224.4,29.8 L225.6,30.4 L226.8,31.1 L228.0,31.8 L229.2,32.5 L230.4,33.3 L231.6,34.0 L232.8,34.8 L234.0,35.7 L235.2,36.5 L236.4,37.4 L237.6,38.2 L238.8,39.1 L240.0,40.0 L241.2,40.9 L242.4,41.8 L243.6,42.6 L244.8,43.5 L246.0,44.3 L247.2,45.2 L248.4,46.0 L249.6,46.7 L250.8,47.5 L252.0,48.2 L253.2,48.9 L254.4,49.6 L255.6,50.2 L256.8,50.8 L258.0,51.3 L259.2,51.8 L260.4,52.3 L261.6,52.7 L262.8,53.0 L264.0,53.3 L265.2,53.6 L266.4,53.8 L267.6,53.9 L268.8,54.0 L270.0,54.0 L271.2,54.0 L272.4,53.9 L273.6,53.8 L274.8,53.6 L276.0,53.3 L277.2,53.0 L278.4,52.7 L279.6,52.3 L280.8,51.8 L282.0,51.3 L283.2,50.8 L284.4,50.2 L285.6,49.6 L286.8,48.9 L288.0,48.2 L289.2,47.5 L290.4,46.7 L291.6,46.0 L292.8,45.2 L294.0,44.3 L295.2,43.5 L296.4,42.6 L297.6,41.8 L298.8,40.9 L300.0,40.0 L301.2,39.1 L302.4,38.2 L303.6,37.4 L304.8,36.5 L306.0,35.7 L307.2,34.8 L308.4,34.0 L309.6,33.3 L310.8,32.5 L312.0,31.8 L313.2,31.1 L314.4,30.4 L315.6,29.8 L316.8,29.2 L318.0,28.7 L319.2,28.2 L320.4,27.7 L321.6,27.3 L322.8,27.0 L324.0,26.7 L325.2,26.4 L326.4,26.2 L327.6,26.1 L328.8,26.0 L330.0,26.0 L331.2,26.0 L332.4,26.1 L333.6,26.2 L334.8,26.4 L336.0,26.7 L337.2,27.0 L338.4,27.3 L339.6,27.7 L340.8,28.2 L342.0,28.7 L343.2,29.2 L344.4,29.8 L345.6,30.4 L346.8,31.1 L348.0,31.8 L349.2,32.5 L350.4,33.3 L351.6,34.0 L352.8,34.8 L354.0,35.7 L355.2,36.5 L356.4,37.4 L357.6,38.2 L358.8,39.1 L360.0,40.0" stroke="#DC2626" stroke-width="2" fill="none" opacity="0.5"/>
    </g>
    <g>
      <animateTransform attributeName="transform" type="translate" from="0 0" to="-120 0" dur="5s" repeatCount="indefinite"/>
      <path d="M0.0,58.0 L1.2,58.8 L2.4,59.5 L3.6,60.2 L4.8,61.0 L6.0,61.7 L7.2,62.4 L8.4,63.1 L9.6,63.8 L10.8,64.4 L12.0,65.1 L13.2,65.6 L14.4,66.2 L15.6,66.7 L16.8,67.2 L18.0,67.7 L19.2,68.1 L20.4,68.5 L21.6,68.9 L22.8,69.2 L24.0,69.4 L25.2,69.6 L26.4,69.8 L27.6,69.9 L28.8,70.0 L30.0,70.0 L31.2,70.0 L32.4,69.9 L33.6,69.8 L34.8,69.6 L36.0,69.4 L37.2,69.2 L38.4,68.9 L39.6,68.5 L40.8,68.1 L42.0,67.7 L43.2,67.2 L44.4,66.7 L45.6,66.2 L46.8,65.6 L48.0,65.1 L49.2,64.4 L50.4,63.8 L51.6,63.1 L52.8,62.4 L54.0,61.7 L55.2,61.0 L56.4,60.2 L57.6,59.5 L58.8,58.8 L60.0,58.0 L61.2,57.2 L62.4,56.5 L63.6,55.8 L64.8,55.0 L66.0,54.3 L67.2,53.6 L68.4,52.9 L69.6,52.2 L70.8,51.6 L72.0,50.9 L73.2,50.4 L74.4,49.8 L75.6,49.3 L76.8,48.8 L78.0,48.3 L79.2,47.9 L80.4,47.5 L81.6,47.1 L82.8,46.8 L84.0,46.6 L85.2,46.4 L86.4,46.2 L87.6,46.1 L88.8,46.0 L90.0,46.0 L91.2,46.0 L92.4,46.1 L93.6,46.2 L94.8,46.4 L96.0,46.6 L97.2,46.8 L98.4,47.1 L99.6,47.5 L100.8,47.9 L102.0,48.3 L103.2,48.8 L104.4,49.3 L105.6,49.8 L106.8,50.4 L108.0,50.9 L109.2,51.6 L110.4,52.2 L111.6,52.9 L112.8,53.6 L114.0,54.3 L115.2,55.0 L116.4,55.8 L117.6,56.5 L118.8,57.2 L120.0,58.0 L121.2,58.8 L122.4,59.5 L123.6,60.2 L124.8,61.0 L126.0,61.7 L127.2,62.4 L128.4,63.1 L129.6,63.8 L130.8,64.4 L132.0,65.1 L133.2,65.6 L134.4,66.2 L135.6,66.7 L136.8,67.2 L138.0,67.7 L139.2,68.1 L140.4,68.5 L141.6,68.9 L142.8,69.2 L144.0,69.4 L145.2,69.6 L146.4,69.8 L147.6,69.9 L148.8,70.0 L150.0,70.0 L151.2,70.0 L152.4,69.9 L153.6,69.8 L154.8,69.6 L156.0,69.4 L157.2,69.2 L158.4,68.9 L159.6,68.5 L160.8,68.1 L162.0,67.7 L163.2,67.2 L164.4,66.7 L165.6,66.2 L166.8,65.6 L168.0,65.1 L169.2,64.4 L170.4,63.8 L171.6,63.1 L172.8,62.4 L174.0,61.7 L175.2,61.0 L176.4,60.2 L177.6,59.5 L178.8,58.8 L180.0,58.0 L181.2,57.2 L182.4,56.5 L183.6,55.8 L184.8,55.0 L186.0,54.3 L187.2,53.6 L188.4,52.9 L189.6,52.2 L190.8,51.6 L192.0,50.9 L193.2,50.4 L194.4,49.8 L195.6,49.3 L196.8,48.8 L198.0,48.3 L199.2,47.9 L200.4,47.5 L201.6,47.1 L202.8,46.8 L204.0,46.6 L205.2,46.4 L206.4,46.2 L207.6,46.1 L208.8,46.0 L210.0,46.0 L211.2,46.0 L212.4,46.1 L213.6,46.2 L214.8,46.4 L216.0,46.6 L217.2,46.8 L218.4,47.1 L219.6,47.5 L220.8,47.9 L222.0,48.3 L223.2,48.8 L224.4,49.3 L225.6,49.8 L226.8,50.4 L228.0,50.9 L229.2,51.6 L230.4,52.2 L231.6,52.9 L232.8,53.6 L234.0,54.3 L235.2,55.0 L236.4,55.8 L237.6,56.5 L238.8,57.2 L240.0,58.0 L241.2,58.8 L242.4,59.5 L243.6,60.2 L244.8,61.0 L246.0,61.7 L247.2,62.4 L248.4,63.1 L249.6,63.8 L250.8,64.4 L252.0,65.1 L253.2,65.6 L254.4,66.2 L255.6,66.7 L256.8,67.2 L258.0,67.7 L259.2,68.1 L260.4,68.5 L261.6,68.9 L262.8,69.2 L264.0,69.4 L265.2,69.6 L266.4,69.8 L267.6,69.9 L268.8,70.0 L270.0,70.0 L271.2,70.0 L272.4,69.9 L273.6,69.8 L274.8,69.6 L276.0,69.4 L277.2,69.2 L278.4,68.9 L279.6,68.5 L280.8,68.1 L282.0,67.7 L283.2,67.2 L284.4,66.7 L285.6,66.2 L286.8,65.6 L288.0,65.1 L289.2,64.4 L290.4,63.8 L291.6,63.1 L292.8,62.4 L294.0,61.7 L295.2,61.0 L296.4,60.2 L297.6,59.5 L298.8,58.8 L300.0,58.0 L301.2,57.2 L302.4,56.5 L303.6,55.8 L304.8,55.0 L306.0,54.3 L307.2,53.6 L308.4,52.9 L309.6,52.2 L310.8,51.6 L312.0,50.9 L313.2,50.4 L314.4,49.8 L315.6,49.3 L316.8,48.8 L318.0,48.3 L319.2,47.9 L320.4,47.5 L321.6,47.1 L322.8,46.8 L324.0,46.6 L325.2,46.4 L326.4,46.2 L327.6,46.1 L328.8,46.0 L330.0,46.0 L331.2,46.0 L332.4,46.1 L333.6,46.2 L334.8,46.4 L336.0,46.6 L337.2,46.8 L338.4,47.1 L339.6,47.5 L340.8,47.9 L342.0,48.3 L343.2,48.8 L344.4,49.3 L345.6,49.8 L346.8,50.4 L348.0,50.9 L349.2,51.6 L350.4,52.2 L351.6,52.9 L352.8,53.6 L354.0,54.3 L355.2,55.0 L356.4,55.8 L357.6,56.5 L358.8,57.2 L360.0,58.0 L360,130 L0,130Z" fill="url(#g2)"/>
      <path d="M0.0,58.0 L1.2,58.8 L2.4,59.5 L3.6,60.2 L4.8,61.0 L6.0,61.7 L7.2,62.4 L8.4,63.1 L9.6,63.8 L10.8,64.4 L12.0,65.1 L13.2,65.6 L14.4,66.2 L15.6,66.7 L16.8,67.2 L18.0,67.7 L19.2,68.1 L20.4,68.5 L21.6,68.9 L22.8,69.2 L24.0,69.4 L25.2,69.6 L26.4,69.8 L27.6,69.9 L28.8,70.0 L30.0,70.0 L31.2,70.0 L32.4,69.9 L33.6,69.8 L34.8,69.6 L36.0,69.4 L37.2,69.2 L38.4,68.9 L39.6,68.5 L40.8,68.1 L42.0,67.7 L43.2,67.2 L44.4,66.7 L45.6,66.2 L46.8,65.6 L48.0,65.1 L49.2,64.4 L50.4,63.8 L51.6,63.1 L52.8,62.4 L54.0,61.7 L55.2,61.0 L56.4,60.2 L57.6,59.5 L58.8,58.8 L60.0,58.0 L61.2,57.2 L62.4,56.5 L63.6,55.8 L64.8,55.0 L66.0,54.3 L67.2,53.6 L68.4,52.9 L69.6,52.2 L70.8,51.6 L72.0,50.9 L73.2,50.4 L74.4,49.8 L75.6,49.3 L76.8,48.8 L78.0,48.3 L79.2,47.9 L80.4,47.5 L81.6,47.1 L82.8,46.8 L84.0,46.6 L85.2,46.4 L86.4,46.2 L87.6,46.1 L88.8,46.0 L90.0,46.0 L91.2,46.0 L92.4,46.1 L93.6,46.2 L94.8,46.4 L96.0,46.6 L97.2,46.8 L98.4,47.1 L99.6,47.5 L100.8,47.9 L102.0,48.3 L103.2,48.8 L104.4,49.3 L105.6,49.8 L106.8,50.4 L108.0,50.9 L109.2,51.6 L110.4,52.2 L111.6,52.9 L112.8,53.6 L114.0,54.3 L115.2,55.0 L116.4,55.8 L117.6,56.5 L118.8,57.2 L120.0,58.0 L121.2,58.8 L122.4,59.5 L123.6,60.2 L124.8,61.0 L126.0,61.7 L127.2,62.4 L128.4,63.1 L129.6,63.8 L130.8,64.4 L132.0,65.1 L133.2,65.6 L134.4,66.2 L135.6,66.7 L136.8,67.2 L138.0,67.7 L139.2,68.1 L140.4,68.5 L141.6,68.9 L142.8,69.2 L144.0,69.4 L145.2,69.6 L146.4,69.8 L147.6,69.9 L148.8,70.0 L150.0,70.0 L151.2,70.0 L152.4,69.9 L153.6,69.8 L154.8,69.6 L156.0,69.4 L157.2,69.2 L158.4,68.9 L159.6,68.5 L160.8,68.1 L162.0,67.7 L163.2,67.2 L164.4,66.7 L165.6,66.2 L166.8,65.6 L168.0,65.1 L169.2,64.4 L170.4,63.8 L171.6,63.1 L172.8,62.4 L174.0,61.7 L175.2,61.0 L176.4,60.2 L177.6,59.5 L178.8,58.8 L180.0,58.0 L181.2,57.2 L182.4,56.5 L183.6,55.8 L184.8,55.0 L186.0,54.3 L187.2,53.6 L188.4,52.9 L189.6,52.2 L190.8,51.6 L192.0,50.9 L193.2,50.4 L194.4,49.8 L195.6,49.3 L196.8,48.8 L198.0,48.3 L199.2,47.9 L200.4,47.5 L201.6,47.1 L202.8,46.8 L204.0,46.6 L205.2,46.4 L206.4,46.2 L207.6,46.1 L208.8,46.0 L210.0,46.0 L211.2,46.0 L212.4,46.1 L213.6,46.2 L214.8,46.4 L216.0,46.6 L217.2,46.8 L218.4,47.1 L219.6,47.5 L220.8,47.9 L222.0,48.3 L223.2,48.8 L224.4,49.3 L225.6,49.8 L226.8,50.4 L228.0,50.9 L229.2,51.6 L230.4,52.2 L231.6,52.9 L232.8,53.6 L234.0,54.3 L235.2,55.0 L236.4,55.8 L237.6,56.5 L238.8,57.2 L240.0,58.0 L241.2,58.8 L242.4,59.5 L243.6,60.2 L244.8,61.0 L246.0,61.7 L247.2,62.4 L248.4,63.1 L249.6,63.8 L250.8,64.4 L252.0,65.1 L253.2,65.6 L254.4,66.2 L255.6,66.7 L256.8,67.2 L258.0,67.7 L259.2,68.1 L260.4,68.5 L261.6,68.9 L262.8,69.2 L264.0,69.4 L265.2,69.6 L266.4,69.8 L267.6,69.9 L268.8,70.0 L270.0,70.0 L271.2,70.0 L272.4,69.9 L273.6,69.8 L274.8,69.6 L276.0,69.4 L277.2,69.2 L278.4,68.9 L279.6,68.5 L280.8,68.1 L282.0,67.7 L283.2,67.2 L284.4,66.7 L285.6,66.2 L286.8,65.6 L288.0,65.1 L289.2,64.4 L290.4,63.8 L291.6,63.1 L292.8,62.4 L294.0,61.7 L295.2,61.0 L296.4,60.2 L297.6,59.5 L298.8,58.8 L300.0,58.0 L301.2,57.2 L302.4,56.5 L303.6,55.8 L304.8,55.0 L306.0,54.3 L307.2,53.6 L308.4,52.9 L309.6,52.2 L310.8,51.6 L312.0,50.9 L313.2,50.4 L314.4,49.8 L315.6,49.3 L316.8,48.8 L318.0,48.3 L319.2,47.9 L320.4,47.5 L321.6,47.1 L322.8,46.8 L324.0,46.6 L325.2,46.4 L326.4,46.2 L327.6,46.1 L328.8,46.0 L330.0,46.0 L331.2,46.0 L332.4,46.1 L333.6,46.2 L334.8,46.4 L336.0,46.6 L337.2,46.8 L338.4,47.1 L339.6,47.5 L340.8,47.9 L342.0,48.3 L343.2,48.8 L344.4,49.3 L345.6,49.8 L346.8,50.4 L348.0,50.9 L349.2,51.6 L350.4,52.2 L351.6,52.9 L352.8,53.6 L354.0,54.3 L355.2,55.0 L356.4,55.8 L357.6,56.5 L358.8,57.2 L360.0,58.0" stroke="#16A34A" stroke-width="2.5" fill="none" opacity="0.6"/>
    </g>
    <g>
      <animateTransform attributeName="transform" type="translate" from="0 0" to="-120 0" dur="4s" repeatCount="indefinite"/>
      <path d="M0.0,76.0 L1.2,76.6 L2.4,77.3 L3.6,77.9 L4.8,78.5 L6.0,79.1 L7.2,79.7 L8.4,80.3 L9.6,80.8 L10.8,81.4 L12.0,81.9 L13.2,82.4 L14.4,82.8 L15.6,83.3 L16.8,83.7 L18.0,84.1 L19.2,84.4 L20.4,84.8 L21.6,85.0 L22.8,85.3 L24.0,85.5 L25.2,85.7 L26.4,85.8 L27.6,85.9 L28.8,86.0 L30.0,86.0 L31.2,86.0 L32.4,85.9 L33.6,85.8 L34.8,85.7 L36.0,85.5 L37.2,85.3 L38.4,85.0 L39.6,84.8 L40.8,84.4 L42.0,84.1 L43.2,83.7 L44.4,83.3 L45.6,82.8 L46.8,82.4 L48.0,81.9 L49.2,81.4 L50.4,80.8 L51.6,80.3 L52.8,79.7 L54.0,79.1 L55.2,78.5 L56.4,77.9 L57.6,77.3 L58.8,76.6 L60.0,76.0 L61.2,75.4 L62.4,74.7 L63.6,74.1 L64.8,73.5 L66.0,72.9 L67.2,72.3 L68.4,71.7 L69.6,71.2 L70.8,70.6 L72.0,70.1 L73.2,69.6 L74.4,69.2 L75.6,68.7 L76.8,68.3 L78.0,67.9 L79.2,67.6 L80.4,67.2 L81.6,67.0 L82.8,66.7 L84.0,66.5 L85.2,66.3 L86.4,66.2 L87.6,66.1 L88.8,66.0 L90.0,66.0 L91.2,66.0 L92.4,66.1 L93.6,66.2 L94.8,66.3 L96.0,66.5 L97.2,66.7 L98.4,67.0 L99.6,67.2 L100.8,67.6 L102.0,67.9 L103.2,68.3 L104.4,68.7 L105.6,69.2 L106.8,69.6 L108.0,70.1 L109.2,70.6 L110.4,71.2 L111.6,71.7 L112.8,72.3 L114.0,72.9 L115.2,73.5 L116.4,74.1 L117.6,74.7 L118.8,75.4 L120.0,76.0 L121.2,76.6 L122.4,77.3 L123.6,77.9 L124.8,78.5 L126.0,79.1 L127.2,79.7 L128.4,80.3 L129.6,80.8 L130.8,81.4 L132.0,81.9 L133.2,82.4 L134.4,82.8 L135.6,83.3 L136.8,83.7 L138.0,84.1 L139.2,84.4 L140.4,84.8 L141.6,85.0 L142.8,85.3 L144.0,85.5 L145.2,85.7 L146.4,85.8 L147.6,85.9 L148.8,86.0 L150.0,86.0 L151.2,86.0 L152.4,85.9 L153.6,85.8 L154.8,85.7 L156.0,85.5 L157.2,85.3 L158.4,85.0 L159.6,84.8 L160.8,84.4 L162.0,84.1 L163.2,83.7 L164.4,83.3 L165.6,82.8 L166.8,82.4 L168.0,81.9 L169.2,81.4 L170.4,80.8 L171.6,80.3 L172.8,79.7 L174.0,79.1 L175.2,78.5 L176.4,77.9 L177.6,77.3 L178.8,76.6 L180.0,76.0 L181.2,75.4 L182.4,74.7 L183.6,74.1 L184.8,73.5 L186.0,72.9 L187.2,72.3 L188.4,71.7 L189.6,71.2 L190.8,70.6 L192.0,70.1 L193.2,69.6 L194.4,69.2 L195.6,68.7 L196.8,68.3 L198.0,67.9 L199.2,67.6 L200.4,67.2 L201.6,67.0 L202.8,66.7 L204.0,66.5 L205.2,66.3 L206.4,66.2 L207.6,66.1 L208.8,66.0 L210.0,66.0 L211.2,66.0 L212.4,66.1 L213.6,66.2 L214.8,66.3 L216.0,66.5 L217.2,66.7 L218.4,67.0 L219.6,67.2 L220.8,67.6 L222.0,67.9 L223.2,68.3 L224.4,68.7 L225.6,69.2 L226.8,69.6 L228.0,70.1 L229.2,70.6 L230.4,71.2 L231.6,71.7 L232.8,72.3 L234.0,72.9 L235.2,73.5 L236.4,74.1 L237.6,74.7 L238.8,75.4 L240.0,76.0 L241.2,76.6 L242.4,77.3 L243.6,77.9 L244.8,78.5 L246.0,79.1 L247.2,79.7 L248.4,80.3 L249.6,80.8 L250.8,81.4 L252.0,81.9 L253.2,82.4 L254.4,82.8 L255.6,83.3 L256.8,83.7 L258.0,84.1 L259.2,84.4 L260.4,84.8 L261.6,85.0 L262.8,85.3 L264.0,85.5 L265.2,85.7 L266.4,85.8 L267.6,85.9 L268.8,86.0 L270.0,86.0 L271.2,86.0 L272.4,85.9 L273.6,85.8 L274.8,85.7 L276.0,85.5 L277.2,85.3 L278.4,85.0 L279.6,84.8 L280.8,84.4 L282.0,84.1 L283.2,83.7 L284.4,83.3 L285.6,82.8 L286.8,82.4 L288.0,81.9 L289.2,81.4 L290.4,80.8 L291.6,80.3 L292.8,79.7 L294.0,79.1 L295.2,78.5 L296.4,77.9 L297.6,77.3 L298.8,76.6 L300.0,76.0 L301.2,75.4 L302.4,74.7 L303.6,74.1 L304.8,73.5 L306.0,72.9 L307.2,72.3 L308.4,71.7 L309.6,71.2 L310.8,70.6 L312.0,70.1 L313.2,69.6 L314.4,69.2 L315.6,68.7 L316.8,68.3 L318.0,67.9 L319.2,67.6 L320.4,67.2 L321.6,67.0 L322.8,66.7 L324.0,66.5 L325.2,66.3 L326.4,66.2 L327.6,66.1 L328.8,66.0 L330.0,66.0 L331.2,66.0 L332.4,66.1 L333.6,66.2 L334.8,66.3 L336.0,66.5 L337.2,66.7 L338.4,67.0 L339.6,67.2 L340.8,67.6 L342.0,67.9 L343.2,68.3 L344.4,68.7 L345.6,69.2 L346.8,69.6 L348.0,70.1 L349.2,70.6 L350.4,71.2 L351.6,71.7 L352.8,72.3 L354.0,72.9 L355.2,73.5 L356.4,74.1 L357.6,74.7 L358.8,75.4 L360.0,76.0 L360,130 L0,130Z" fill="url(#g1)"/>
      <path d="M0.0,76.0 L1.2,76.6 L2.4,77.3 L3.6,77.9 L4.8,78.5 L6.0,79.1 L7.2,79.7 L8.4,80.3 L9.6,80.8 L10.8,81.4 L12.0,81.9 L13.2,82.4 L14.4,82.8 L15.6,83.3 L16.8,83.7 L18.0,84.1 L19.2,84.4 L20.4,84.8 L21.6,85.0 L22.8,85.3 L24.0,85.5 L25.2,85.7 L26.4,85.8 L27.6,85.9 L28.8,86.0 L30.0,86.0 L31.2,86.0 L32.4,85.9 L33.6,85.8 L34.8,85.7 L36.0,85.5 L37.2,85.3 L38.4,85.0 L39.6,84.8 L40.8,84.4 L42.0,84.1 L43.2,83.7 L44.4,83.3 L45.6,82.8 L46.8,82.4 L48.0,81.9 L49.2,81.4 L50.4,80.8 L51.6,80.3 L52.8,79.7 L54.0,79.1 L55.2,78.5 L56.4,77.9 L57.6,77.3 L58.8,76.6 L60.0,76.0 L61.2,75.4 L62.4,74.7 L63.6,74.1 L64.8,73.5 L66.0,72.9 L67.2,72.3 L68.4,71.7 L69.6,71.2 L70.8,70.6 L72.0,70.1 L73.2,69.6 L74.4,69.2 L75.6,68.7 L76.8,68.3 L78.0,67.9 L79.2,67.6 L80.4,67.2 L81.6,67.0 L82.8,66.7 L84.0,66.5 L85.2,66.3 L86.4,66.2 L87.6,66.1 L88.8,66.0 L90.0,66.0 L91.2,66.0 L92.4,66.1 L93.6,66.2 L94.8,66.3 L96.0,66.5 L97.2,66.7 L98.4,67.0 L99.6,67.2 L100.8,67.6 L102.0,67.9 L103.2,68.3 L104.4,68.7 L105.6,69.2 L106.8,69.6 L108.0,70.1 L109.2,70.6 L110.4,71.2 L111.6,71.7 L112.8,72.3 L114.0,72.9 L115.2,73.5 L116.4,74.1 L117.6,74.7 L118.8,75.4 L120.0,76.0 L121.2,76.6 L122.4,77.3 L123.6,77.9 L124.8,78.5 L126.0,79.1 L127.2,79.7 L128.4,80.3 L129.6,80.8 L130.8,81.4 L132.0,81.9 L133.2,82.4 L134.4,82.8 L135.6,83.3 L136.8,83.7 L138.0,84.1 L139.2,84.4 L140.4,84.8 L141.6,85.0 L142.8,85.3 L144.0,85.5 L145.2,85.7 L146.4,85.8 L147.6,85.9 L148.8,86.0 L150.0,86.0 L151.2,86.0 L152.4,85.9 L153.6,85.8 L154.8,85.7 L156.0,85.5 L157.2,85.3 L158.4,85.0 L159.6,84.8 L160.8,84.4 L162.0,84.1 L163.2,83.7 L164.4,83.3 L165.6,82.8 L166.8,82.4 L168.0,81.9 L169.2,81.4 L170.4,80.8 L171.6,80.3 L172.8,79.7 L174.0,79.1 L175.2,78.5 L176.4,77.9 L177.6,77.3 L178.8,76.6 L180.0,76.0 L181.2,75.4 L182.4,74.7 L183.6,74.1 L184.8,73.5 L186.0,72.9 L187.2,72.3 L188.4,71.7 L189.6,71.2 L190.8,70.6 L192.0,70.1 L193.2,69.6 L194.4,69.2 L195.6,68.7 L196.8,68.3 L198.0,67.9 L199.2,67.6 L200.4,67.2 L201.6,67.0 L202.8,66.7 L204.0,66.5 L205.2,66.3 L206.4,66.2 L207.6,66.1 L208.8,66.0 L210.0,66.0 L211.2,66.0 L212.4,66.1 L213.6,66.2 L214.8,66.3 L216.0,66.5 L217.2,66.7 L218.4,67.0 L219.6,67.2 L220.8,67.6 L222.0,67.9 L223.2,68.3 L224.4,68.7 L225.6,69.2 L226.8,69.6 L228.0,70.1 L229.2,70.6 L230.4,71.2 L231.6,71.7 L232.8,72.3 L234.0,72.9 L235.2,73.5 L236.4,74.1 L237.6,74.7 L238.8,75.4 L240.0,76.0 L241.2,76.6 L242.4,77.3 L243.6,77.9 L244.8,78.5 L246.0,79.1 L247.2,79.7 L248.4,80.3 L249.6,80.8 L250.8,81.4 L252.0,81.9 L253.2,82.4 L254.4,82.8 L255.6,83.3 L256.8,83.7 L258.0,84.1 L259.2,84.4 L260.4,84.8 L261.6,85.0 L262.8,85.3 L264.0,85.5 L265.2,85.7 L266.4,85.8 L267.6,85.9 L268.8,86.0 L270.0,86.0 L271.2,86.0 L272.4,85.9 L273.6,85.8 L274.8,85.7 L276.0,85.5 L277.2,85.3 L278.4,85.0 L279.6,84.8 L280.8,84.4 L282.0,84.1 L283.2,83.7 L284.4,83.3 L285.6,82.8 L286.8,82.4 L288.0,81.9 L289.2,81.4 L290.4,80.8 L291.6,80.3 L292.8,79.7 L294.0,79.1 L295.2,78.5 L296.4,77.9 L297.6,77.3 L298.8,76.6 L300.0,76.0 L301.2,75.4 L302.4,74.7 L303.6,74.1 L304.8,73.5 L306.0,72.9 L307.2,72.3 L308.4,71.7 L309.6,71.2 L310.8,70.6 L312.0,70.1 L313.2,69.6 L314.4,69.2 L315.6,68.7 L316.8,68.3 L318.0,67.9 L319.2,67.6 L320.4,67.2 L321.6,67.0 L322.8,66.7 L324.0,66.5 L325.2,66.3 L326.4,66.2 L327.6,66.1 L328.8,66.0 L330.0,66.0 L331.2,66.0 L332.4,66.1 L333.6,66.2 L334.8,66.3 L336.0,66.5 L337.2,66.7 L338.4,67.0 L339.6,67.2 L340.8,67.6 L342.0,67.9 L343.2,68.3 L344.4,68.7 L345.6,69.2 L346.8,69.6 L348.0,70.1 L349.2,70.6 L350.4,71.2 L351.6,71.7 L352.8,72.3 L354.0,72.9 L355.2,73.5 L356.4,74.1 L357.6,74.7 L358.8,75.4 L360.0,76.0" stroke="#86EFAC" stroke-width="3" fill="none" opacity="1.0"/>
    </g>
  </g>
</svg>